<svg width="176" height="30" viewBox="0 0 176 30" fill="none" xmlns="http://www.w3.org/2000/svg">
<path d="M40.176 16.8305C39.4074 16.1829 38.3994 15.7368 37.1595 15.4924C37.8727 15.253 38.485 14.9456 38.9941 14.5701C40.4002 13.5318 41.1008 12.0854 41.1008 10.2357V9.96101C41.1008 8.84213 40.8387 7.84673 40.312 6.97985C39.7854 6.11297 38.9286 5.41997 37.7416 4.90589C36.5522 4.39181 34.9999 4.13477 33.0796 4.13477H27.082C27.334 5.57369 27.46 6.96725 27.46 8.31545V23.6018C27.46 24.95 27.334 26.3435 27.082 27.7824H33.4904C36.5068 27.7824 38.6816 27.2507 40.0197 26.1898C41.3553 25.1264 42.0256 23.6144 42.0256 21.6488V21.2708C42.0256 19.3505 41.4082 17.8713 40.176 16.833V16.8305ZM36.7639 7.06301C37.5073 7.76105 37.8777 8.70353 37.8777 9.89045V10.5078C37.8777 11.8334 37.4367 12.9069 36.5572 13.7284C35.6778 14.5499 34.3119 14.9632 32.4622 14.9632H30.7839V6.01721H32.7722C34.6924 6.01721 36.023 6.36497 36.7639 7.06301ZM38.6337 21.8176C38.6337 22.9818 38.2633 23.9369 37.5199 24.6803C36.7765 25.4237 35.4358 25.7942 33.4929 25.7942H30.7864V16.8154H32.9788C35.0125 16.8154 36.464 17.1984 37.3309 17.9645C38.1978 18.7306 38.6337 19.7638 38.6337 21.0666V21.8201V21.8176Z" fill="white"/>
<path d="M56.0748 14.8564C56.0748 13.2562 55.8052 11.9483 55.2684 10.9327C54.7317 9.91715 54.0286 9.17375 53.1617 8.70503C52.2923 8.23631 51.3221 8.00195 50.2486 8.00195C49.3338 8.00195 48.5929 8.05991 48.0209 8.17331C47.4489 8.28671 46.7634 8.48075 45.9646 8.75543L45.6219 11.4292C46.8315 10.3103 48.1923 9.75083 49.6992 9.75083C50.7501 9.75083 51.5439 10.0936 52.0806 10.779C52.6174 11.4644 52.887 12.5153 52.887 13.9315V16.1365C52.824 16.0811 52.7635 16.0231 52.698 15.9702C51.9546 15.3654 50.9441 15.063 49.6639 15.063C48.4745 15.063 47.4413 15.315 46.5618 15.8165C45.6823 16.3205 44.9919 17.0563 44.4879 18.0265C43.9839 18.9967 43.7344 20.1685 43.7344 21.5394V21.746C43.7344 23.1169 43.9561 24.2711 44.4022 25.2085C44.8482 26.146 45.4757 26.8541 46.2871 27.3329C47.0986 27.8117 48.0058 28.0536 49.0113 28.0536C50.1075 28.0536 51.0499 27.7966 51.8387 27.2825C52.2797 26.9952 52.6249 26.655 52.8845 26.2644V27.7814H56.4831C56.2084 26.3879 56.0723 24.9943 56.0723 23.6008V14.8614L56.0748 14.8564ZM52.0479 25.5664C51.5565 25.9217 50.934 26.0981 50.1805 26.0981C49.1751 26.0981 48.3813 25.7503 47.7991 25.0523C47.217 24.3568 46.9247 23.2429 46.9247 21.7108V21.0253C46.9247 19.6544 47.1918 18.586 47.7311 17.8199C48.2679 17.0538 49.107 16.6708 50.2511 16.6708C51.0273 16.6708 51.6724 16.8698 52.1865 17.2705C52.4359 17.4646 52.6703 17.6989 52.8895 17.9686V24.4525C52.7232 24.9086 52.446 25.2791 52.0504 25.5638L52.0479 25.5664Z" fill="white"/>
<path d="M63.1689 9.87421V8.24125H59.5703C59.8223 9.68017 59.9483 11.0737 59.9483 12.4219V23.5956C59.9483 24.9438 59.8223 26.3374 59.5703 27.7763H63.5116C63.2823 26.3374 63.1689 24.9438 63.1689 23.5956V11.8701C63.3377 11.6609 63.5141 11.4719 63.7006 11.3081C64.4213 10.6806 67.2904 9.98744 68.5 9.87404L68.8427 7.68164C68.1119 7.727 65.4772 8.26393 64.7464 8.65201C64.1618 8.96197 63.6376 9.37273 63.1689 9.87421Z" fill="white"/>
<path d="M74.5986 10.0344V8.4014H71C71.252 9.84032 71.378 11.2339 71.378 12.5821V23.7557C71.378 25.1039 71.252 26.4976 71 27.9365H74.9413C74.712 26.4976 74.5986 25.1039 74.5986 23.7557V12.0302C74.7674 11.821 74.9438 11.6321 75.1303 11.4683C75.851 10.8408 78.7201 10.1476 79.9297 10.0342L80.2724 7.8418C79.5416 7.88716 76.9069 8.42408 76.1761 8.81216C75.5914 9.12212 75.0673 9.53289 74.5986 10.0344Z" fill="white"/>
<path d="M92.3824 9.0458C91.445 8.35028 90.3135 8 88.9905 8C87.5516 8 86.3067 8.40572 85.2558 9.21716C84.205 10.0286 83.3986 11.1651 82.8392 12.6267C82.2797 14.0883 82 15.7692 82 17.6642V18.3849C82 20.3505 82.2923 22.0641 82.8744 23.5257C83.4566 24.9873 84.2957 26.1238 85.3944 26.9353C86.4906 27.7467 87.8162 28.1524 89.371 28.1524C90.9258 28.1524 92.2488 27.7518 93.5517 26.9529L93.8264 24.2112C93.2997 24.8059 92.6319 25.3376 91.8204 25.8038C91.009 26.2725 90.1799 26.5069 89.3357 26.5069C87.9422 26.5069 86.9316 25.8844 86.3016 24.6396C85.6742 23.3947 85.3592 21.5954 85.3592 19.2417V18.5563H95.23V17.6642C95.23 15.4718 94.9906 13.6599 94.5093 12.2311C94.0305 10.8022 93.3198 9.74132 92.3849 9.04328L92.3824 9.0458ZM85.3566 16.636C85.3566 14.4436 85.6313 12.7174 86.1782 11.46C86.7275 10.2025 87.6171 9.575 88.8519 9.575C90.0161 9.575 90.8402 10.1244 91.319 11.2206C91.7978 12.3168 92.0397 13.7683 92.0397 15.5726V16.8074H85.3566V16.636Z" fill="white"/>
<path d="M101.027 25.4828C100.765 25.1174 100.634 24.5353 100.634 23.7339V4.13086H97C97.2747 5.52442 97.4108 6.91798 97.4108 8.31154V23.5626C97.4108 25.2535 97.7535 26.4026 98.4389 27.0074C99.1244 27.6122 100.039 27.9146 101.181 27.9146C101.98 27.9146 102.688 27.7659 103.305 27.4686L103.476 25.6869C103.088 25.9163 102.665 26.0297 102.209 26.0297C101.682 26.0297 101.289 25.8482 101.027 25.4803V25.4828Z" fill="white"/>
<path d="M122.063 4.30222C120.864 4.16614 119.939 4.13086 118.533 4.13086H110V27.7785H115.38V19.1425H118.533C119.939 19.1425 120.864 19.1072 122.063 18.9711C125.49 18.5604 128.507 16.1261 128.507 11.6379C128.507 7.14982 125.594 4.7155 122.063 4.30474V4.30222ZM120.211 14.8585C119.732 14.9265 119.08 14.9265 118.326 14.9265H115.378V8.34682H118.326C119.08 8.34682 119.732 8.34682 120.211 8.41486C121.821 8.6215 122.885 9.61438 122.885 11.6354C122.885 13.6565 121.821 14.6519 120.211 14.856V14.8585Z" fill="white"/>
<path d="M142.458 3.65039C135.125 3.65039 130.566 8.44847 130.566 15.953C130.566 23.4576 135.125 28.2557 142.458 28.2557C149.791 28.2557 154.317 23.4223 154.317 15.953C154.317 8.48375 149.759 3.65039 142.458 3.65039ZM142.458 24.2816C138.517 24.2816 136.118 21.2324 136.118 15.953C136.118 10.6736 138.517 7.62443 142.458 7.62443C146.4 7.62443 148.763 10.6409 148.763 15.953C148.763 21.2652 146.364 24.2816 142.458 24.2816Z" fill="white"/>
<path d="M168.26 13.7612C164.455 12.8691 163.255 11.9115 163.255 10.1274C163.255 8.3432 164.455 7.625 166.133 7.625C168.396 7.625 169.629 9.03116 169.903 11.2236H175.319C174.805 6.93956 172.199 3.64844 166.305 3.64844C161.713 3.64844 157.633 6.21884 157.633 10.6389C157.633 15.059 160.718 16.8432 165.791 18.1107C169.011 18.8642 170.11 19.9957 170.11 21.6412C170.11 23.2868 168.568 24.2797 166.615 24.2797C164.455 24.2797 162.57 23.1154 162.091 20.6811H156.676C157.087 25.7866 160.924 28.2562 166.718 28.2562C171.448 28.2562 175.732 25.7892 175.732 21.1952C175.732 17.4606 173.469 14.991 168.26 13.7587V13.7612Z" fill="white"/>
<path d="M6.28686 9.9807C7.01514 10.1949 7.94754 10.3108 8.91522 10.3108C9.8829 10.3108 10.8153 10.1924 11.5436 9.9807C12.0173 9.8421 12.3021 9.6909 12.4583 9.58758C12.4886 9.56742 12.5062 9.52458 12.5062 9.4767C12.5062 9.42882 12.4861 9.38598 12.4583 9.36582C12.3046 9.2625 12.0199 9.1113 11.5436 8.9727C10.8153 8.7585 9.8829 8.64258 8.91522 8.64258C7.94754 8.64258 7.01514 8.76102 6.28686 8.9727C5.8131 9.1113 5.52834 9.2625 5.3721 9.36582C5.34186 9.38598 5.32422 9.42882 5.32422 9.4767C5.32422 9.52458 5.34438 9.56742 5.3721 9.58758C5.52582 9.6909 5.81058 9.8421 6.28686 9.9807ZM6.31962 9.2121C7.03782 9.00294 7.96014 8.88702 8.91522 8.88702C9.8703 8.88702 10.7926 9.00294 11.5108 9.2121C11.8183 9.30282 12.04 9.39606 12.1988 9.4767C12.04 9.55734 11.8183 9.6531 11.5108 9.7413C10.7926 9.95046 9.8703 10.0664 8.91522 10.0664C7.96014 10.0664 7.03782 9.95046 6.31962 9.7413C6.01218 9.65058 5.79042 9.55734 5.63166 9.4767C5.79042 9.39606 6.01218 9.3003 6.31962 9.2121Z" fill="white"/>
<path d="M13.3862 6.45375C12.222 5.56671 10.7932 5.12319 9.10224 5.12319C7.24248 5.12319 5.79852 5.60955 4.75776 6.57723C4.60404 6.72087 4.45788 6.86955 4.3218 7.02327V0.46875H0C0.3024 2.21511 0.45612 3.90603 0.45612 5.54151V18.8471C0.45612 22.1735 1.03068 24.7867 2.18232 26.6843C3.33144 28.5819 5.292 29.5294 8.064 29.5294C10.0321 29.5294 11.6802 29.0304 13.0108 28.035C14.3438 27.0346 15.3241 25.6435 15.9642 23.8569C16.5992 22.0677 16.9218 19.9836 16.9218 17.5997V16.0625C16.9218 13.8449 16.6219 11.9121 16.0272 10.264C15.43 8.61339 14.553 7.34835 13.3888 6.45879L13.3862 6.45375ZM13.2376 11.8264C13.288 12.2623 13.3308 12.7084 13.3686 13.1494C13.1645 13.3888 12.8344 13.6131 12.4135 13.8046C12.3278 12.6655 12.2245 11.7583 12.1489 11.1611C12.4967 11.0225 12.7764 10.8587 12.983 10.6722C13.0133 10.6445 13.0435 10.6143 13.0738 10.5865C13.1242 10.9293 13.1821 11.3476 13.2376 11.8264ZM12.2522 13.8726C11.7961 14.0591 11.2442 14.2078 10.647 14.3061C10.5991 13.1519 10.5437 12.1968 10.5034 11.5693C11.0578 11.4912 11.5668 11.3728 11.9851 11.2216C12.0607 11.8213 12.164 12.7311 12.2497 13.8726H12.2522ZM5.22144 9.04179C5.418 8.88303 5.70528 8.73687 6.06816 8.61339C6.82668 8.35383 7.83972 8.21019 8.91576 8.21019C9.9918 8.21019 11.0023 8.35383 11.7634 8.61339C12.1288 8.73939 12.4135 8.88303 12.6101 9.04179C12.789 9.18543 12.8848 9.33663 12.8848 9.47271C12.8848 9.47271 12.8848 9.47271 12.8848 9.47523C12.8848 9.56343 12.8444 9.64911 12.7915 9.72219C12.7915 9.72219 12.7789 9.73731 12.7739 9.74739C12.7688 9.75495 12.7613 9.76251 12.7537 9.77007C12.721 9.80787 12.6857 9.84315 12.6529 9.87087C12.6076 9.91119 12.5572 9.95151 12.4992 9.98931C12.4866 9.99687 12.474 10.0069 12.4614 10.0145C12.4488 10.0221 12.4337 10.0321 12.4211 10.0397C12.4135 10.0447 12.4085 10.0473 12.4009 10.0523C12.3934 10.0573 12.3858 10.0599 12.3808 10.0649C12.3732 10.0699 12.3656 10.0725 12.3581 10.0775C12.343 10.0851 12.3278 10.0951 12.3127 10.1027C12.2976 10.1103 12.2825 10.1178 12.2674 10.1279C12.2598 10.1329 12.2522 10.1355 12.2447 10.1405C12.2119 10.1556 12.1792 10.1733 12.1464 10.1884C12.1313 10.1959 12.1162 10.2035 12.101 10.2085C12.0557 10.2287 12.0078 10.2489 11.9599 10.2665C11.9498 10.2665 11.9423 10.2665 11.9322 10.269C11.9221 10.2715 11.9146 10.2791 11.907 10.2867C11.8591 10.3043 11.8112 10.3219 11.7608 10.3396C11.7482 10.3446 11.7356 10.3471 11.723 10.3522C11.7004 10.3597 11.6752 10.3673 11.65 10.3749C11.6348 10.3799 11.6222 10.3849 11.6071 10.3875C11.5164 10.4152 11.4206 10.4429 11.3224 10.4681C11.3072 10.4706 11.2946 10.4757 11.2795 10.4782C11.2518 10.4857 11.2216 10.4933 11.1938 10.4983C11.1712 10.5034 11.151 10.5084 11.1283 10.5135C11.1056 10.5185 11.083 10.5235 11.0628 10.5286C11.0477 10.5311 11.0326 10.5361 11.0174 10.5387C10.9418 10.5538 10.8662 10.5689 10.7906 10.584C10.7604 10.5891 10.7276 10.5941 10.6974 10.5991C10.6823 10.5991 10.6672 10.6042 10.652 10.6067C10.6369 10.6092 10.6193 10.6117 10.6042 10.6143C10.589 10.6168 10.5714 10.6193 10.5563 10.6218C10.5412 10.6218 10.5235 10.6269 10.5084 10.6294C10.4756 10.6344 10.4404 10.6395 10.4076 10.6445C10.3824 10.647 10.3547 10.6521 10.3295 10.6546C10.3093 10.6571 10.2866 10.6596 10.264 10.6621C10.2463 10.6621 10.2312 10.6672 10.2136 10.6672C10.1606 10.6747 10.1052 10.6798 10.0498 10.6848C10.0246 10.6873 9.99936 10.6899 9.97416 10.6924C9.96912 10.6924 9.9666 10.6924 9.96156 10.6924C9.94392 10.6924 9.9288 10.6949 9.91116 10.6974C9.86076 10.7025 9.80784 10.705 9.75744 10.71C9.7398 10.71 9.72216 10.7125 9.70704 10.7125C9.67176 10.7125 9.639 10.7176 9.60372 10.7201C9.57096 10.7201 9.5382 10.7226 9.50544 10.7251C9.41724 10.7302 9.32652 10.7327 9.2358 10.7352C9.20556 10.7352 9.17784 10.7352 9.1476 10.7352C9.06948 10.7352 8.99388 10.7352 8.91576 10.7352C8.75952 10.7352 8.6058 10.7327 8.45208 10.7251C8.1144 10.7125 7.7868 10.6848 7.46928 10.642C7.11144 10.5941 6.77628 10.5311 6.47136 10.4505C6.45624 10.4454 6.4386 10.4429 6.42348 10.4379C6.23448 10.3875 6.05808 10.3295 5.8968 10.2665C5.82876 10.2388 5.76324 10.2136 5.70276 10.1859C5.67756 10.1733 5.64984 10.1607 5.62464 10.1506C5.607 10.143 5.59188 10.1329 5.57424 10.1254C5.54904 10.1128 5.52636 10.1002 5.50368 10.0876C5.49612 10.0825 5.48856 10.08 5.481 10.075C5.46588 10.0674 5.45076 10.0573 5.43564 10.0498C5.40792 10.0321 5.37768 10.0145 5.35248 9.99687C5.34492 9.99183 5.33988 9.98679 5.33232 9.98427C5.31216 9.97167 5.29452 9.95655 5.27688 9.94395C5.26428 9.93387 5.25168 9.92631 5.2416 9.91623C5.21892 9.89859 5.19624 9.88095 5.17608 9.86079C5.12568 9.81795 5.07276 9.76251 5.02992 9.69951C5.02236 9.68691 5.01228 9.67431 5.00472 9.66171C4.99968 9.65415 4.99464 9.64407 4.9896 9.63651C4.97952 9.61887 4.97196 9.60123 4.9644 9.58107C4.95684 9.56343 4.9518 9.54327 4.94928 9.52563C4.94676 9.50547 4.94424 9.48783 4.94424 9.46767C4.94424 9.32907 5.04 9.18039 5.21892 9.03423L5.22144 9.04179ZM4.88124 9.83307C4.94928 9.94899 5.05008 10.0573 5.18616 10.1581C5.33988 10.2741 5.53644 10.3824 5.77836 10.4807C5.80356 10.4908 5.82876 10.5009 5.85396 10.5109C5.88168 10.521 5.9094 10.5311 5.93712 10.5412C5.96232 10.5513 5.98752 10.5588 6.01272 10.5689C6.02532 10.5739 6.03792 10.579 6.05052 10.5815C6.05556 10.5815 6.0606 10.584 6.06564 10.5865C6.0858 10.5941 6.10848 10.6017 6.13116 10.6067C6.14376 10.6117 6.15888 10.6143 6.17148 10.6193C6.18408 10.6243 6.1992 10.6269 6.2118 10.6319C6.2244 10.6369 6.23952 10.6395 6.25212 10.6445C6.29496 10.6571 6.33528 10.6697 6.37812 10.6798C6.39072 10.6823 6.40332 10.6873 6.41592 10.6899C6.44616 10.6974 6.47892 10.705 6.50916 10.7151C6.52428 10.7176 6.53688 10.7226 6.552 10.7251C6.67044 10.7554 6.79392 10.7806 6.92244 10.8058C6.9552 10.8108 6.98544 10.8184 7.0182 10.8234C7.04844 10.8285 7.0812 10.8335 7.11144 10.8385C7.12908 10.8411 7.14924 10.8436 7.16688 10.8486C7.19712 10.8537 7.22484 10.8587 7.25508 10.8612C7.26264 10.8612 7.2702 10.8612 7.27776 10.8637C7.30548 10.8688 7.33572 10.8713 7.36344 10.8763C7.39116 10.8814 7.41888 10.8839 7.4466 10.8864C7.47432 10.8889 7.49952 10.894 7.52724 10.8965C7.94304 10.9469 8.379 10.9746 8.82504 10.9771C8.85276 10.9771 8.88048 10.9771 8.9082 10.9771C8.93592 10.9771 8.96364 10.9771 8.99136 10.9771C9.32652 10.9771 9.65664 10.9595 9.97416 10.9293H9.9792C10.0044 10.9293 10.0271 10.9242 10.0523 10.9217C10.0976 10.9167 10.1405 10.9116 10.1858 10.9066C10.2035 10.9066 10.2186 10.9015 10.2362 10.9015C10.2539 10.9015 10.2715 10.8965 10.2866 10.8965C10.3421 10.8889 10.3975 10.8814 10.4504 10.8738C10.5336 10.8612 10.6168 10.8486 10.6999 10.836C10.715 10.8335 10.7327 10.831 10.7478 10.8285C10.7806 10.8234 10.8133 10.8159 10.8436 10.8108C10.8587 10.8083 10.8763 10.8058 10.8914 10.8007C10.9066 10.7982 10.9242 10.7957 10.9393 10.7907C11.0804 10.7629 11.219 10.7327 11.3501 10.6974C11.3803 10.6899 11.408 10.6823 11.4383 10.6747C11.4534 10.6697 11.466 10.6672 11.4811 10.6621C11.4937 10.6571 11.5088 10.6546 11.5214 10.6495C11.5265 10.6495 11.5315 10.647 11.5391 10.6445C11.5618 10.6369 11.5844 10.6319 11.6071 10.6243C11.6626 10.6067 11.7155 10.5916 11.7684 10.5714C11.781 10.5664 11.7936 10.5613 11.8087 10.5588C11.8188 10.5538 11.8314 10.5513 11.8415 10.5462C11.8465 10.5462 11.8516 10.5437 11.8566 10.5412C11.8667 10.5387 11.8768 10.5336 11.8868 10.5311C11.9146 10.521 11.9423 10.5109 11.97 10.5009C11.9952 10.4908 12.0229 10.4807 12.0481 10.4706C12.0607 10.4656 12.0733 10.4605 12.0834 10.4555C12.0834 10.4555 12.0884 10.4555 12.0884 10.453C12.1162 10.4404 12.1414 10.4303 12.1691 10.4177C12.1817 10.4127 12.1943 10.4051 12.2094 10.4001C12.222 10.395 12.2346 10.3875 12.2472 10.3824C12.2472 10.3824 12.2472 10.3824 12.2497 10.3824C12.2623 10.3774 12.2724 10.3723 12.285 10.3648C12.285 10.3648 12.2875 10.3648 12.29 10.3648C12.3001 10.3597 12.3102 10.3547 12.3228 10.3497C12.3228 10.3497 12.3278 10.3497 12.3304 10.3471C12.3404 10.3421 12.3505 10.3371 12.3581 10.332C12.3707 10.327 12.3808 10.3194 12.3934 10.3119C12.406 10.3068 12.416 10.2993 12.4261 10.2917C12.4362 10.2867 12.4463 10.2816 12.4564 10.2741C12.469 10.2665 12.4816 10.2589 12.4942 10.2514C12.5042 10.2463 12.5143 10.2388 12.5219 10.2337C12.537 10.2237 12.5546 10.2136 12.5698 10.2035C12.5748 10.201 12.5798 10.1959 12.5849 10.1934C12.5924 10.1884 12.6025 10.1808 12.6101 10.1758C12.6554 10.143 12.6983 10.1077 12.7361 10.075C12.7436 10.0674 12.7537 10.0599 12.7613 10.0523C12.7638 10.0498 12.7688 10.0447 12.7714 10.0422C12.789 10.0271 12.8041 10.0095 12.8192 9.99435C12.8268 9.98679 12.8318 9.97923 12.8394 9.97167C12.8621 9.94395 12.8848 9.91875 12.9049 9.88851C12.91 9.88095 12.915 9.87339 12.92 9.86583C12.9251 9.85827 12.9301 9.85071 12.9352 9.84315C12.9377 9.83811 12.9402 9.83307 12.9427 9.83055C12.9427 9.84315 12.9478 9.85323 12.9503 9.86583C12.9553 9.89607 12.9604 9.92883 12.9679 9.96411C12.9755 10.0019 12.9805 10.0397 12.9881 10.0825C12.9881 10.0926 12.9906 10.1027 12.9931 10.1153C12.9982 10.1405 13.0032 10.1682 13.0057 10.1959C13.0082 10.2136 13.0108 10.2287 13.0133 10.2463C13.0133 10.2589 13.0183 10.2741 13.0208 10.2867C13.0208 10.2993 13.0259 10.3119 13.0259 10.3245C12.9856 10.3723 12.9402 10.4177 12.8898 10.4605C12.6983 10.6319 12.4337 10.7856 12.1086 10.9167C12.0884 10.9242 12.0683 10.9343 12.0456 10.9419L12.0229 10.9494C11.9977 10.9595 11.9725 10.9671 11.9473 10.9771C11.5366 11.1258 11.0326 11.2443 10.4807 11.3224C10.453 11.3274 10.4278 11.3299 10.4 11.3325C10.3723 11.335 10.3446 11.34 10.3169 11.3425C9.88848 11.3955 9.44244 11.4232 8.98884 11.4282C8.96112 11.4282 8.9334 11.4282 8.90568 11.4282C8.87796 11.4282 8.85024 11.4282 8.82252 11.4282C8.3664 11.4257 7.92036 11.398 7.49448 11.3451C7.46928 11.3425 7.44408 11.3375 7.41636 11.335C7.41636 11.335 7.41384 11.335 7.41132 11.335C7.3836 11.3325 7.3584 11.3274 7.33068 11.3249C6.78132 11.2468 6.27984 11.1283 5.86656 10.9797C5.84136 10.9696 5.81616 10.962 5.79096 10.9519C5.7834 10.9494 5.77584 10.9469 5.76828 10.9444C5.74812 10.9368 5.72796 10.9293 5.70528 10.9192C5.37768 10.7881 5.1156 10.6344 4.92156 10.4631C4.87368 10.4202 4.82832 10.3749 4.78548 10.327C4.81824 10.1279 4.84596 9.96159 4.86864 9.83055L4.88124 9.83307ZM10.4832 14.3313C10.0069 14.3993 9.50796 14.4371 8.9964 14.4396V11.6752C9.45504 11.6727 9.90612 11.6424 10.3396 11.5895C10.3799 12.217 10.4328 13.1721 10.4832 14.3287V14.3313ZM8.8326 11.6777V14.4421C8.32356 14.4396 7.8246 14.4018 7.3458 14.3338C7.39368 13.1796 7.44912 12.222 7.48944 11.5945C7.92036 11.6475 8.37144 11.6777 8.8326 11.6802V11.6777ZM7.32564 11.5719C7.28532 12.1993 7.2324 13.1544 7.18452 14.3086C6.5898 14.2128 6.03792 14.0641 5.5818 13.8751C5.66748 12.7386 5.7708 11.8264 5.8464 11.2241C6.26472 11.3753 6.77376 11.4963 7.32816 11.5719H7.32564ZM4.59396 11.8264C4.6494 11.3476 4.70736 10.9318 4.75776 10.5865C4.788 10.6168 4.81824 10.6445 4.84848 10.6722C5.05764 10.8562 5.33736 11.02 5.68512 11.1611C5.607 11.7609 5.5062 12.6731 5.42052 13.8046C4.99716 13.6131 4.66956 13.3888 4.46544 13.1494C4.50072 12.7059 4.54608 12.2623 4.59648 11.8264H4.59396ZM4.3974 12.0885C4.36716 12.3707 4.33944 12.6529 4.31424 12.9352C4.24872 12.8167 4.21848 12.6958 4.21848 12.5773C4.21848 12.4135 4.27896 12.2497 4.3974 12.0885ZM5.35752 21.4603C5.04756 21.2461 4.8132 21.0093 4.65696 20.7573C4.59648 20.6565 4.55616 20.5305 4.54104 20.3919C4.52088 20.2054 4.49316 19.9509 4.47804 19.7921C4.31676 18.0961 4.28148 16.3044 4.37724 14.4573C4.59396 14.7042 4.91652 14.926 5.33736 15.12C5.22144 17.2948 5.23152 19.4242 5.36004 21.4603H5.35752ZM5.16348 24.066C5.10552 23.7359 5.04252 23.3831 4.96944 23.0328C4.92156 22.806 4.8762 22.5742 4.83084 22.3398C5.00472 22.5213 5.21892 22.6876 5.4684 22.8413C5.54148 23.6149 5.6322 24.3785 5.74308 25.1118C5.42808 24.7943 5.229 24.4365 5.16348 24.066ZM5.93712 25.2907C5.81868 24.5322 5.7204 23.746 5.64228 22.9421C6.07572 23.179 6.59736 23.3705 7.16688 23.4965C7.21476 24.4062 7.28028 25.2555 7.36092 26.0215C6.804 25.8577 6.31512 25.6057 5.93712 25.2882V25.2907ZM8.8326 26.2408C8.38404 26.2357 7.94808 26.1778 7.53228 26.0694C7.44912 25.3008 7.38108 24.4491 7.3332 23.5318C7.812 23.6275 8.316 23.6779 8.8326 23.683V26.2408ZM8.99892 26.2408V23.683C9.51552 23.6779 10.017 23.6275 10.4983 23.5318C10.4504 24.4591 10.3824 25.321 10.2967 26.0971C9.90612 26.1879 9.47268 26.2357 8.99892 26.2408ZM10.4656 26.0568C10.5487 25.2807 10.6142 24.4213 10.6621 23.499C11.2291 23.373 11.7508 23.1815 12.1842 22.9446C12.1061 23.7485 12.0078 24.5373 11.8894 25.2958C11.5139 25.6461 11.0376 25.9006 10.463 26.0543L10.4656 26.0568ZM12.8041 23.3025C12.7487 23.5545 12.7058 23.746 12.6706 23.9299C12.6202 24.1819 12.4816 24.6431 12.091 25.0917C12.1993 24.3634 12.29 23.6099 12.3606 22.8438C12.6101 22.6901 12.8243 22.5213 12.9982 22.3423C12.9377 22.6674 12.8722 22.99 12.8016 23.305L12.8041 23.3025ZM13.0864 21.9265C12.8948 22.1886 12.6151 22.4305 12.2573 22.6422C11.7961 22.9169 11.214 23.1336 10.5764 23.2697C10.0498 23.3831 9.49032 23.4385 8.91828 23.4385C8.34624 23.4385 7.7868 23.3806 7.26012 23.2697C6.62256 23.1336 6.04044 22.9169 5.57928 22.6422C5.22144 22.428 4.94172 22.1886 4.7502 21.9265C4.55616 21.6645 4.4604 21.3923 4.4604 21.1176C4.4604 20.9967 4.4604 20.8732 4.46292 20.7522C4.4856 20.8102 4.51332 20.8656 4.54356 20.916C4.73508 21.231 5.03244 21.5183 5.42808 21.7678C5.90688 22.0702 6.51672 22.3071 7.1946 22.4557C7.74396 22.5767 8.32356 22.6372 8.9208 22.6372C9.51804 22.6372 10.1002 22.5767 10.647 22.4557C11.3249 22.3071 11.9347 22.0702 12.4135 21.7678C12.4135 21.7678 12.4135 21.7678 12.416 21.7678C12.8092 21.5183 13.1065 21.2335 13.298 20.9211C13.3283 20.8681 13.356 20.8127 13.3787 20.7547C13.3787 20.8757 13.3787 20.9992 13.3812 21.1176C13.3812 21.3923 13.2829 21.6645 13.0914 21.9265H13.0864ZM7.11396 22.1937C6.51168 22.0525 5.96736 21.8383 5.5314 21.5712C5.39532 19.525 5.38272 17.3805 5.49612 15.1906C5.96232 15.3846 6.52428 15.5409 7.13412 15.6417C7.05852 18.0357 7.05096 20.2381 7.11396 22.1937ZM7.29792 15.6669C7.78932 15.7399 8.30592 15.7777 8.8326 15.7828V22.3953C8.29584 22.3902 7.7742 22.3348 7.27776 22.2315C7.21224 20.2759 7.2198 18.0709 7.2954 15.6694L7.29792 15.6669ZM8.99892 22.3953V15.7828C9.5256 15.7803 10.0422 15.7399 10.5336 15.6669C10.6092 18.0684 10.6168 20.2759 10.5512 22.2289C10.0548 22.3323 9.53316 22.3877 8.9964 22.3927L8.99892 22.3953ZM10.6974 15.6417C11.3072 15.5409 11.8692 15.3846 12.3354 15.1906C12.4488 17.3805 12.4362 19.5275 12.3001 21.5737C11.8642 21.8409 11.3224 22.0525 10.7201 22.1937C10.7831 20.2407 10.7755 18.0382 10.6999 15.6417H10.6974ZM13.3535 19.7921C13.3333 19.9912 13.3132 20.1928 13.2905 20.3893C13.2754 20.5279 13.235 20.6539 13.172 20.7547C13.0158 21.0093 12.7814 21.2461 12.4715 21.4603C12.6025 19.4242 12.6101 17.2923 12.4967 15.12C12.9175 14.926 13.2401 14.7042 13.4568 14.4573C13.55 16.3044 13.5173 18.0987 13.356 19.7921H13.3535ZM13.613 13.6786C13.613 13.8247 13.5626 13.9734 13.4669 14.1221C13.2728 14.4144 12.8999 14.6891 12.3883 14.9184C11.8944 15.1377 11.2795 15.309 10.6067 15.4149C10.0674 15.5005 9.5004 15.5434 8.9208 15.5434C8.3412 15.5434 7.77168 15.5005 7.23492 15.4149C6.56208 15.309 5.94468 15.1377 5.45328 14.9184C4.9392 14.6916 4.56624 14.4144 4.37472 14.1221C4.27644 13.9734 4.22856 13.8247 4.22856 13.6786V13.1443C4.2588 13.1947 4.29408 13.2451 4.33188 13.293C4.56876 13.5929 4.95432 13.8575 5.47596 14.0793C5.97492 14.2935 6.59232 14.4598 7.26012 14.5606C7.79184 14.6412 8.35128 14.6841 8.92332 14.6841C9.49536 14.6841 10.0548 14.6437 10.5865 14.5606C11.2543 14.4573 11.8717 14.2909 12.3707 14.0793C12.8923 13.855 13.2779 13.5929 13.5148 13.293C13.5526 13.2451 13.5878 13.1947 13.6181 13.1443V13.6786H13.613ZM13.5148 12.9377C13.4896 12.6555 13.4618 12.3707 13.4316 12.091C13.55 12.2523 13.6105 12.4161 13.6105 12.5799C13.6105 12.6983 13.5778 12.8193 13.5148 12.9377Z" fill="white"/>
</svg>
